<?xml version="1.0" encoding="iso-8859-1"?>
<!-- Generator: Adobe Illustrator 19.0.0, SVG Export Plug-In . SVG Version: 6.00 Build 0)  -->
<svg version="1.1" id="Layer_1" xmlns="http://www.w3.org/2000/svg" xmlns:xlink="http://www.w3.org/1999/xlink" x="0px" y="0px"
	 viewBox="0 0 501.373 501.373" style="enable-background:new 0 0 501.373 501.373;" xml:space="preserve">
<g>
	<g>
		<path d="M492.373,58.793c-5.76-0.96-11.307,2.987-12.267,8.747l-11.2,66.88C425.707,55.38,341.867,5.353,249.28,5.353
			C111.787,5.353,0,115.433,0,250.687S111.893,496.02,249.387,496.02c93.227,0,178.027-50.56,221.227-131.84
			c2.773-5.227,0.747-11.627-4.48-14.4c-5.227-2.773-11.627-0.747-14.4,4.48c-39.467,74.347-117.013,120.533-202.347,120.533
			c-125.76-0.107-228.053-100.587-228.053-224.107s102.293-224,227.947-224c86.933,0,165.333,48.107,203.947,123.733l-77.867-14.933
			c-5.76-1.067-11.307,2.773-12.373,8.64c-1.067,5.653,2.667,11.2,8.32,12.373l101.227,19.413c0.64,0.107,1.28,0.213,2.027,0.213
			c5.227,0,9.6-3.733,10.56-8.853l16.107-96C502.187,65.407,498.347,59.86,492.373,58.793z"/>
	</g>
</g>
<g>
</g>
<g>
</g>
<g>
</g>
<g>
</g>
<g>
</g>
<g>
</g>
<g>
</g>
<g>
</g>
<g>
</g>
<g>
</g>
<g>
</g>
<g>
</g>
<g>
</g>
<g>
</g>
<g>
</g>
</svg>
