<?xml version="1.0" encoding="iso-8859-1"?>
<!-- Generator: Adobe Illustrator 19.0.0, SVG Export Plug-In . SVG Version: 6.00 Build 0)  -->
<svg version="1.1" id="Layer_1" xmlns="http://www.w3.org/2000/svg" xmlns:xlink="http://www.w3.org/1999/xlink" x="0px" y="0px"
	 viewBox="0 0 512.027 512.027" style="enable-background:new 0 0 512.027 512.027;" xml:space="preserve">
<g>
	<g>
		<g>
			<path d="M178.253,103.493L245.347,36.4v208.64c0,5.333,3.84,10.133,9.067,10.88c6.613,0.96,12.267-4.16,12.267-10.56V36.4
				l67.093,67.093c4.267,4.053,10.987,3.947,15.04-0.213c3.947-4.16,3.947-10.667,0-14.827L263.48,3.12
				c-4.16-4.16-10.88-4.16-15.04,0l-85.333,85.333c-4.053,4.267-3.947,10.987,0.213,15.04
				C167.48,107.44,174.093,107.44,178.253,103.493z"/>
			<path d="M501.347,341.36H10.68c-5.867,0-10.667,4.8-10.667,10.667V501.36c0,5.867,4.8,10.667,10.667,10.667h490.667
				c5.867,0,10.667-4.8,10.667-10.667V352.027C512.013,346.16,507.213,341.36,501.347,341.36z M490.68,490.693H21.347v-128H490.68
				V490.693z"/>
		</g>
	</g>
</g>
<g>
</g>
<g>
</g>
<g>
</g>
<g>
</g>
<g>
</g>
<g>
</g>
<g>
</g>
<g>
</g>
<g>
</g>
<g>
</g>
<g>
</g>
<g>
</g>
<g>
</g>
<g>
</g>
<g>
</g>
</svg>
