<?xml version="1.0" encoding="iso-8859-1"?>
<!-- Generator: Adobe Illustrator 18.0.0, SVG Export Plug-In . SVG Version: 6.00 Build 0)  -->
<!DOCTYPE svg PUBLIC "-//W3C//DTD SVG 1.1//EN" "http://www.w3.org/Graphics/SVG/1.1/DTD/svg11.dtd">
<svg version="1.1" id="Capa_1" xmlns="http://www.w3.org/2000/svg" xmlns:xlink="http://www.w3.org/1999/xlink" x="0px" y="0px"
	 viewBox="0 0 52 52" style="enable-background:new 0 0 52 52;" xml:space="preserve">
<g>
	<path d="M24.439,3.5C29.172,3.524,33.661,5.116,37.34,8H31c-0.552,0-1,0.447-1,1s0.448,1,1,1h9c0.13,0,0.26-0.027,0.382-0.077
		c0.245-0.101,0.44-0.296,0.541-0.541C40.973,9.26,41,9.13,41,9V1c0-0.553-0.448-1-1-1s-1,0.447-1,1v5.745
		c-4.101-3.37-9.188-5.219-14.551-5.245c-0.04,0-0.079,0-0.118,0c-6.108,0-11.84,2.37-16.151,6.681
		c-8.511,8.511-8.922,22.308-0.935,31.408c0.198,0.226,0.474,0.341,0.752,0.341c0.234,0,0.469-0.082,0.659-0.248
		c0.415-0.364,0.456-0.996,0.092-1.411C1.454,29.959,1.826,17.363,9.594,9.595C13.552,5.637,18.818,3.506,24.439,3.5z"/>
	<path d="M44.748,12.403c-0.364-0.413-0.997-0.455-1.411-0.091c-0.415,0.364-0.456,0.996-0.092,1.411
		c7.3,8.312,6.931,20.91-0.84,28.682c-3.958,3.958-9.217,6.133-14.845,6.095c-4.733-0.024-9.222-1.616-12.901-4.5H21
		c0.552,0,1-0.447,1-1s-0.448-1-1-1h-9c-0.13,0-0.26,0.026-0.382,0.077c-0.245,0.101-0.44,0.296-0.541,0.541
		C11.026,42.74,11,42.87,11,43v8c0,0.553,0.448,1,1,1s1-0.447,1-1v-5.745c4.101,3.37,9.188,5.219,14.551,5.245
		c0.04,0,0.079,0,0.118,0c6.108,0,11.84-2.37,16.151-6.681C52.334,35.305,52.742,21.506,44.748,12.403z"/>
</g>
<g>
</g>
<g>
</g>
<g>
</g>
<g>
</g>
<g>
</g>
<g>
</g>
<g>
</g>
<g>
</g>
<g>
</g>
<g>
</g>
<g>
</g>
<g>
</g>
<g>
</g>
<g>
</g>
<g>
</g>
</svg>
